<mxfile host="app.diagrams.net" agent="Mozilla/5.0 (Windows NT 10.0; Win64; x64) AppleWebKit/537.36 (KHTML, like Gecko) Chrome/136.0.0.0 Safari/537.36" version="27.0.2">
  <diagram name="Page-1" id="SBoTReltcZ9SgnUL8t6n">
    <mxGraphModel dx="2558" dy="1852" grid="1" gridSize="10" guides="1" tooltips="1" connect="1" arrows="1" fold="1" page="1" pageScale="1" pageWidth="850" pageHeight="1100" math="0" shadow="0">
      <root>
        <mxCell id="0" />
        <mxCell id="1" parent="0" />
        <mxCell id="lmHQxOiSAwMJxl6Yarxt-13" value="" style="rounded=0;whiteSpace=wrap;html=1;movable=0;resizable=0;rotatable=0;deletable=0;editable=0;locked=1;connectable=0;" vertex="1" parent="1">
          <mxGeometry x="100" y="-35" width="550" height="460" as="geometry" />
        </mxCell>
        <mxCell id="lmHQxOiSAwMJxl6Yarxt-3" value="Login" style="swimlane;fontStyle=0;childLayout=stackLayout;horizontal=1;startSize=30;horizontalStack=0;resizeParent=1;resizeParentMax=0;resizeLast=0;collapsible=1;marginBottom=0;whiteSpace=wrap;html=1;" vertex="1" parent="1">
          <mxGeometry x="155" y="270" width="140" height="90" as="geometry" />
        </mxCell>
        <mxCell id="lmHQxOiSAwMJxl6Yarxt-5" value="Username" style="text;strokeColor=none;fillColor=none;align=left;verticalAlign=middle;spacingLeft=4;spacingRight=4;overflow=hidden;points=[[0,0.5],[1,0.5]];portConstraint=eastwest;rotatable=0;whiteSpace=wrap;html=1;" vertex="1" parent="lmHQxOiSAwMJxl6Yarxt-3">
          <mxGeometry y="30" width="140" height="30" as="geometry" />
        </mxCell>
        <mxCell id="lmHQxOiSAwMJxl6Yarxt-6" value="Password" style="text;strokeColor=none;fillColor=none;align=left;verticalAlign=middle;spacingLeft=4;spacingRight=4;overflow=hidden;points=[[0,0.5],[1,0.5]];portConstraint=eastwest;rotatable=0;whiteSpace=wrap;html=1;" vertex="1" parent="lmHQxOiSAwMJxl6Yarxt-3">
          <mxGeometry y="60" width="140" height="30" as="geometry" />
        </mxCell>
        <mxCell id="lmHQxOiSAwMJxl6Yarxt-7" value="Register" style="swimlane;fontStyle=0;childLayout=stackLayout;horizontal=1;startSize=30;horizontalStack=0;resizeParent=1;resizeParentMax=0;resizeLast=0;collapsible=1;marginBottom=0;whiteSpace=wrap;html=1;" vertex="1" parent="1">
          <mxGeometry x="160" y="30" width="130" height="150" as="geometry" />
        </mxCell>
        <mxCell id="lmHQxOiSAwMJxl6Yarxt-8" value="Username" style="text;strokeColor=none;fillColor=none;align=left;verticalAlign=middle;spacingLeft=4;spacingRight=4;overflow=hidden;points=[[0,0.5],[1,0.5]];portConstraint=eastwest;rotatable=0;whiteSpace=wrap;html=1;" vertex="1" parent="lmHQxOiSAwMJxl6Yarxt-7">
          <mxGeometry y="30" width="130" height="30" as="geometry" />
        </mxCell>
        <mxCell id="lmHQxOiSAwMJxl6Yarxt-9" value="Password" style="text;strokeColor=none;fillColor=none;align=left;verticalAlign=middle;spacingLeft=4;spacingRight=4;overflow=hidden;points=[[0,0.5],[1,0.5]];portConstraint=eastwest;rotatable=0;whiteSpace=wrap;html=1;" vertex="1" parent="lmHQxOiSAwMJxl6Yarxt-7">
          <mxGeometry y="60" width="130" height="30" as="geometry" />
        </mxCell>
        <mxCell id="lmHQxOiSAwMJxl6Yarxt-10" value="Role&lt;div&gt;&lt;span style=&quot;white-space: pre;&quot;&gt;&#x9;&lt;/span&gt;+Admin&lt;br&gt;&lt;/div&gt;&lt;div&gt;&lt;span style=&quot;white-space: pre;&quot;&gt;&#x9;&lt;/span&gt;+Ciso&lt;br&gt;&lt;/div&gt;&lt;div&gt;&lt;span style=&quot;white-space: pre;&quot;&gt;&#x9;&lt;/span&gt;&lt;span style=&quot;white-space: pre;&quot;&gt;&#x9;&lt;/span&gt;Entity name&lt;br&gt;&lt;/div&gt;" style="text;strokeColor=none;fillColor=none;align=left;verticalAlign=middle;spacingLeft=4;spacingRight=4;overflow=hidden;points=[[0,0.5],[1,0.5]];portConstraint=eastwest;rotatable=0;whiteSpace=wrap;html=1;" vertex="1" parent="lmHQxOiSAwMJxl6Yarxt-7">
          <mxGeometry y="90" width="130" height="60" as="geometry" />
        </mxCell>
        <mxCell id="lmHQxOiSAwMJxl6Yarxt-17" value="" style="rounded=0;whiteSpace=wrap;html=1;" vertex="1" parent="1">
          <mxGeometry x="380" y="100" width="140" height="220" as="geometry" />
        </mxCell>
        <mxCell id="lmHQxOiSAwMJxl6Yarxt-18" value="Manage User and License" style="rounded=0;whiteSpace=wrap;html=1;" vertex="1" parent="1">
          <mxGeometry x="390" y="230" width="120" height="60" as="geometry" />
        </mxCell>
        <mxCell id="lmHQxOiSAwMJxl6Yarxt-19" value="License Dashboard" style="rounded=0;whiteSpace=wrap;html=1;" vertex="1" parent="1">
          <mxGeometry x="390" y="110" width="120" height="110" as="geometry" />
        </mxCell>
        <mxCell id="lmHQxOiSAwMJxl6Yarxt-31" style="edgeStyle=orthogonalEdgeStyle;rounded=0;orthogonalLoop=1;jettySize=auto;html=1;entryX=0;entryY=0.5;entryDx=0;entryDy=0;" edge="1" parent="1" source="lmHQxOiSAwMJxl6Yarxt-30" target="lmHQxOiSAwMJxl6Yarxt-9">
          <mxGeometry relative="1" as="geometry" />
        </mxCell>
        <mxCell id="lmHQxOiSAwMJxl6Yarxt-30" value="Unregistered User" style="shape=umlActor;verticalLabelPosition=bottom;verticalAlign=top;html=1;outlineConnect=0;" vertex="1" parent="1">
          <mxGeometry x="-230" y="75" width="30" height="60" as="geometry" />
        </mxCell>
        <mxCell id="lmHQxOiSAwMJxl6Yarxt-33" style="edgeStyle=orthogonalEdgeStyle;rounded=0;orthogonalLoop=1;jettySize=auto;html=1;entryX=0;entryY=0.5;entryDx=0;entryDy=0;" edge="1" parent="1" source="lmHQxOiSAwMJxl6Yarxt-32" target="lmHQxOiSAwMJxl6Yarxt-5">
          <mxGeometry relative="1" as="geometry" />
        </mxCell>
        <mxCell id="lmHQxOiSAwMJxl6Yarxt-32" value="Registered User" style="shape=umlActor;verticalLabelPosition=bottom;verticalAlign=top;html=1;outlineConnect=0;" vertex="1" parent="1">
          <mxGeometry x="-180" y="285" width="30" height="60" as="geometry" />
        </mxCell>
        <mxCell id="lmHQxOiSAwMJxl6Yarxt-34" style="edgeStyle=orthogonalEdgeStyle;rounded=0;orthogonalLoop=1;jettySize=auto;html=1;entryX=0;entryY=0.5;entryDx=0;entryDy=0;" edge="1" parent="1" source="lmHQxOiSAwMJxl6Yarxt-9" target="lmHQxOiSAwMJxl6Yarxt-19">
          <mxGeometry relative="1" as="geometry" />
        </mxCell>
        <mxCell id="lmHQxOiSAwMJxl6Yarxt-35" style="edgeStyle=orthogonalEdgeStyle;rounded=0;orthogonalLoop=1;jettySize=auto;html=1;exitX=1;exitY=0.5;exitDx=0;exitDy=0;entryX=0;entryY=0.75;entryDx=0;entryDy=0;" edge="1" parent="1" source="lmHQxOiSAwMJxl6Yarxt-5" target="lmHQxOiSAwMJxl6Yarxt-17">
          <mxGeometry relative="1" as="geometry" />
        </mxCell>
        <mxCell id="lmHQxOiSAwMJxl6Yarxt-37" style="edgeStyle=orthogonalEdgeStyle;rounded=0;orthogonalLoop=1;jettySize=auto;html=1;entryX=0.5;entryY=0;entryDx=0;entryDy=0;" edge="1" parent="1" source="lmHQxOiSAwMJxl6Yarxt-36" target="lmHQxOiSAwMJxl6Yarxt-17">
          <mxGeometry relative="1" as="geometry" />
        </mxCell>
        <mxCell id="lmHQxOiSAwMJxl6Yarxt-36" value="Database" style="shape=cylinder3;whiteSpace=wrap;html=1;boundedLbl=1;backgroundOutline=1;size=15;" vertex="1" parent="1">
          <mxGeometry x="550" y="-130" width="60" height="80" as="geometry" />
        </mxCell>
      </root>
    </mxGraphModel>
  </diagram>
</mxfile>
